control3min_grf.mot
version=1
nRows=27
nColumns 19
inDegrees=yes
endheader
time	1_ground_force_vx	1_ground_force_vy	1_ground_force_vz	1_ground_force_px	1_ground_force_py	1_ground_force_pz	1_ground_torque_x	1_ground_torque_y	1_ground_torque_z	2_ground_force_vx	2_ground_force_vy	2_ground_force_vz	2_ground_force_px	2_ground_force_py	2_ground_force_pz	2_ground_torque_x	2_ground_torque_y	2_ground_torque_z
            3.751500	            4.389610	          212.746008	           -6.481742	           -0.142082	            0.006386	           -0.439411	            0.004876	            0.236316	           -0.007200	            8.602568	          304.763177	           11.548275	           -0.158116	            0.005776	           -0.659471	            0.010222	            0.362119	            0.013722
            3.752000	            4.527797	          209.140721	           -6.497543	           -0.141573	            0.006390	           -0.440261	            0.003265	            0.150817	           -0.004686	            8.569051	          301.079676	           11.629010	           -0.157713	            0.005779	           -0.659834	            0.010688	            0.375544	            0.014505
            3.752500	            4.529072	          205.894759	           -6.236321	           -0.141661	            0.006388	           -0.440009	            0.005286	            0.240306	           -0.007279	            8.536699	          297.029294	           11.333006	           -0.158027	            0.005778	           -0.659804	            0.010323	            0.359195	            0.013705
            3.753000	            4.758766	          202.650218	           -6.296659	           -0.141522	            0.006387	           -0.439634	            0.006907	            0.294141	           -0.009139	            8.270304	          292.976331	           11.506383	           -0.157971	            0.005777	           -0.659385	            0.011018	            0.390318	            0.015329
            3.753500	            4.668142	          199.945232	           -6.078746	           -0.142013	            0.006388	           -0.439838	            0.004045	            0.173263	           -0.005268	            8.468858	          289.847665	           11.166637	           -0.158072	            0.005778	           -0.659775	            0.009816	            0.335951	            0.012943
            3.754000	            4.577279	          195.438572	           -6.097843	           -0.141572	            0.006394	           -0.441317	            0.002667	            0.113879	           -0.003553	            8.580441	          284.876463	           11.008072	           -0.157640	            0.005777	           -0.659045	            0.010656	            0.353776	            0.013670
            3.754500	            4.487030	          192.552731	           -5.743135	           -0.140907	            0.006392	           -0.440716	            0.001369	            0.058755	           -0.001752	            8.591096	          281.929922	           11.044487	           -0.158005	            0.005779	           -0.660210	            0.012557	            0.412068	            0.016143
            3.755000	            4.579111	          190.389561	           -5.752638	           -0.141215	            0.006391	           -0.440553	            0.001630	            0.067782	           -0.002048	            8.607026	          277.510530	           10.981789	           -0.157645	            0.005779	           -0.659674	            0.014383	            0.463746	            0.018352
            3.755500	            4.672348	          187.503558	           -5.352530	           -0.141161	            0.006389	           -0.440093	            0.003921	            0.157353	           -0.004492	            8.663804	          274.748862	           10.878057	           -0.158060	            0.005779	           -0.660181	            0.014171	            0.449387	            0.017792
            3.756000	            4.718505	          185.160310	           -5.408548	           -0.141512	            0.006387	           -0.439610	            0.002701	            0.106004	           -0.003096	            8.541220	          269.776144	           10.907305	           -0.157658	            0.005777	           -0.659225	            0.011058	            0.349261	            0.014121
            3.756500	            4.856201	          182.997541	           -5.509877	           -0.141617	            0.006384	           -0.438932	            0.003682	            0.138757	           -0.004178	            8.552415	          266.646467	           10.661494	           -0.157429	            0.005779	           -0.659632	            0.013565	            0.422940	            0.016911
            3.757000	            4.857480	          178.490113	           -5.345778	           -0.141205	            0.006389	           -0.440168	            0.002570	            0.094418	           -0.002828	            8.423849	          263.331138	           10.696655	           -0.157710	            0.005779	           -0.659932	            0.014729	            0.460437	            0.018703
            3.757500	            4.812226	          176.506789	           -5.262455	           -0.141572	            0.006386	           -0.439359	            0.001015	            0.037234	           -0.001110	            8.346703	          258.727601	           10.539484	           -0.157920	            0.005777	           -0.659376	            0.016029	            0.496864	            0.020240
            3.758000	            5.134387	          172.720289	           -5.050204	           -0.140674	            0.006392	           -0.440834	            0.001913	            0.064346	           -0.001881	            8.407366	          254.861804	           10.197169	           -0.157456	            0.005777	           -0.659015	            0.016282	            0.493589	            0.019749
            3.758500	            4.814256	          170.376183	           -4.921888	           -0.141031	            0.006388	           -0.439946	            0.000171	            0.006036	           -0.000174	            8.747943	          251.364163	           10.184545	           -0.157468	            0.005777	           -0.658894	            0.017771	            0.510642	            0.020690
            3.759000	            4.860544	          167.311872	           -4.980998	           -0.140891	            0.006390	           -0.440416	            0.001416	            0.048741	           -0.001451	            8.807421	          247.865537	           10.172041	           -0.157090	            0.005780	           -0.659466	            0.016160	            0.454793	            0.018664
            3.759500	            4.907971	          164.245595	           -4.581549	           -0.140860	            0.006392	           -0.440896	            0.002918	            0.097667	           -0.002724	            8.536394	          245.101452	           10.396946	           -0.157712	            0.005778	           -0.659567	            0.016999	            0.488072	            0.020703
            3.760000	            5.045683	          162.623427	           -4.634703	           -0.140943	            0.006388	           -0.439879	            0.002110	            0.068005	           -0.001938	            8.689489	          241.603803	           10.196689	           -0.157801	            0.005778	           -0.659533	            0.017149	            0.476814	            0.020124
            3.760500	            5.137635	          159.919853	           -4.738237	           -0.141001	            0.006388	           -0.439974	            0.001888	            0.058757	           -0.001741	            8.797769	          237.553229	           10.088338	           -0.157327	            0.005779	           -0.659406	            0.017963	            0.485024	            0.020598
            3.761000	            5.183791	          157.576605	           -4.794255	           -0.140570	            0.006388	           -0.439879	            0.001370	            0.041640	           -0.001267	            8.625053	          233.500771	           10.214747	           -0.157491	            0.005777	           -0.658949	            0.019644	            0.531812	            0.023265
            3.761500	            5.139371	          154.150172	           -4.487836	           -0.139992	            0.006390	           -0.440371	           -0.000071	           -0.002134	            0.000062	            8.772955	          231.475305	           10.301315	           -0.157816	            0.005779	           -0.660014	            0.020120	            0.530876	            0.023626
            3.762000	            5.094231	          152.166651	           -4.358657	           -0.140759	            0.006390	           -0.440394	            0.000517	            0.015457	           -0.000443	            8.648315	          227.055572	           10.191750	           -0.157201	            0.005778	           -0.659030	            0.020749	            0.544758	            0.024452
            3.762500	            5.231897	          148.922681	           -4.556335	           -0.141092	            0.006395	           -0.441446	            0.001744	            0.049653	           -0.001519	            8.611996	          224.109867	            9.946616	           -0.157540	            0.005777	           -0.659100	            0.016845	            0.438366	            0.019456
            3.763000	            5.140882	          147.119417	           -4.426270	           -0.140621	            0.006391	           -0.440497	            0.001974	            0.056500	           -0.001700	            8.715124	          221.531140	           10.218946	           -0.157955	            0.005780	           -0.660453	            0.018154	            0.461450	            0.021286
            3.763500	            5.141261	          144.415629	           -4.483720	           -0.140448	            0.006393	           -0.440992	            0.001590	            0.044668	           -0.001387	            8.729663	          217.480531	           10.016778	           -0.157174	            0.005779	           -0.659301	            0.017813	            0.443765	            0.020439
            3.764000	            5.187808	          142.432125	           -4.354769	           -0.140725	            0.006389	           -0.440113	            0.000940	            0.025801	           -0.000789	            8.368239	          213.795542	           10.191509	           -0.157576	            0.005776	           -0.658918	            0.020564	            0.525377	            0.025044
            3.764500	            5.142459	          139.728131	           -4.366249	           -0.140303	            0.006391	           -0.440615	           -0.001045	           -0.028394	            0.000887	            8.612396	          211.034688	           10.040769	           -0.157484	            0.005777	           -0.659127	            0.019842	            0.486195	            0.023133
